# xmcd CD database file
#
# Track frame offsets:
#	183
#	14585
#	34350
#	48148
#	85295
#	102743
#	122458
#	132940
#	151200
#	171560
#
# Disc length: 2472 seconds
#
# Revision: 1
# Processed by: cddbd v1.5.2PL0 Copyright (c) Steve Scherf et al.
# Submitted via: CDex 1.70beta2
#
DISCID=8409a60a
DTITLE=Leaf Hound - Growers of Mushroom ... plus
DYEAR=1971
DGENRE=Rock
TTITLE0=leaf hound - freelance fiend
TTITLE1=leaf hound - sad road to the sea
TTITLE2=leaf hound - drowned my life in fear
TTITLE3=leaf hound - work my body
TTITLE4=leaf hound - stray
TTITLE5=leaf hound - with a minute to go
TTITLE6=leaf hound - growers of mushroom
TTITLE7=leaf hound - stagnant pool
TTITLE8=leaf hound - sawdust caesar
TTITLE9=leaf hound - it's gonna get better
EXTD=YEAR: 1971
EXTT0=
EXTT1=
EXTT2=
EXTT3=
EXTT4=
EXTT5=
EXTT6=
EXTT7=
EXTT8=
EXTT9=Bonus track
PLAYORDER=
